<svg width="118" height="97" viewBox="0 0 118 97" fill="none" xmlns="http://www.w3.org/2000/svg">
<path d="M79.318 27.7743C70.958 27.7743 62.458 27.4443 54.498 25.2243C46.538 23.0043 39.558 18.8543 33.138 13.9943C28.948 10.8243 25.138 8.31426 19.708 8.69426C14.3952 8.97453 9.31411 10.9593 5.21798 14.3543C-1.69202 20.3543 -0.642025 31.5843 2.11797 39.4543C6.26797 51.3043 18.908 59.5343 29.648 64.9043C42.058 71.1043 55.648 74.7043 69.358 76.7743C81.358 78.5943 96.728 79.9143 107.108 72.0943C116.648 64.9043 119.268 48.4943 116.928 37.4043C116.361 34.1299 114.619 31.1749 112.028 29.0943C105.328 24.2043 95.338 27.4743 87.808 27.6343C85.008 27.6943 82.138 27.7643 79.318 27.7743Z" fill="#F2F2F2"/>
<path d="M105.588 52.4443V56.7443" stroke="#BABABA" stroke-linecap="round" stroke-linejoin="round"/>
<path d="M103.438 54.5942H107.738" stroke="#BABABA" stroke-linecap="round" stroke-linejoin="round"/>
<path d="M30.3584 28.0443V32.3443" stroke="#BABABA" stroke-linecap="round" stroke-linejoin="round"/>
<path d="M28.208 30.1943H32.508" stroke="#BABABA" stroke-linecap="round" stroke-linejoin="round"/>
<path d="M56.958 9.79423C57.4993 9.79423 57.938 9.35547 57.938 8.81423C57.938 8.27299 57.4993 7.83423 56.958 7.83423C56.4168 7.83423 55.978 8.27299 55.978 8.81423C55.978 9.35547 56.4168 9.79423 56.958 9.79423Z" fill="#CFCFCF"/>
<path d="M20.418 5.69425C20.9592 5.69425 21.398 5.25549 21.398 4.71425C21.398 4.17301 20.9592 3.73425 20.418 3.73425C19.8767 3.73425 19.438 4.17301 19.438 4.71425C19.438 5.25549 19.8767 5.69425 20.418 5.69425Z" fill="#CFCFCF"/>
<path d="M63.0582 96.1843C83.2994 96.1843 99.7082 95.1635 99.7082 93.9043C99.7082 92.6451 83.2994 91.6243 63.0582 91.6243C42.817 91.6243 26.4082 92.6451 26.4082 93.9043C26.4082 95.1635 42.817 96.1843 63.0582 96.1843Z" fill="#F2F2F2"/>
<path d="M47.9682 30.5443H44.1582V56.8843H47.9682V30.5443Z" fill="#D2D2D2"/>
<path d="M44.0829 32.4627L45.8979 35.8126L67.9227 23.879L66.1077 20.5291L44.0829 32.4627Z" fill="#D2D2D2"/>
<path d="M42.938 54.6042H48.768C51.7411 54.6042 54.5924 55.7853 56.6947 57.8876C58.797 59.9899 59.978 62.8412 59.978 65.8142V66.6342H31.728V65.8142C31.728 62.8412 32.9091 59.9899 35.0114 57.8876C37.1136 55.7853 39.965 54.6042 42.938 54.6042Z" fill="white" stroke="#BABABA" stroke-linecap="round" stroke-linejoin="round"/>
<path d="M63.8284 66.7643H27.8784" stroke="#BABABA" stroke-linecap="round" stroke-linejoin="round"/>
<path d="M46.298 40.2443C49.9486 40.2443 52.908 37.2849 52.908 33.6343C52.908 29.9837 49.9486 27.0243 46.298 27.0243C42.6474 27.0243 39.688 29.9837 39.688 33.6343C39.688 37.2849 42.6474 40.2443 46.298 40.2443Z" fill="white" stroke="#BABABA" stroke-linecap="round" stroke-linejoin="round"/>
<path d="M83.068 58.8243C82.898 58.7643 81.618 58.8843 81.458 58.8243C80.308 58.3943 79.8979 59.8243 78.8379 59.2343C72.0867 55.76 66.8402 49.9352 64.0882 42.8587C61.3362 35.7822 61.2688 27.9433 63.899 20.8206C66.5291 13.6979 71.6748 7.78389 78.3654 4.19417C85.056 0.60445 92.8289 -0.412806 100.218 1.3343C101.48 1.63941 102.722 2.0201 103.938 2.4743C104.168 2.5543 103.608 3.7943 103.828 3.8743L83.068 58.8243Z" fill="white" stroke="#BABABA" stroke-linecap="round" stroke-linejoin="round"/>
<path d="M102.958 35.1442C98.1381 48.0542 91.0181 57.8742 85.2481 60.3942C84.4755 60.7584 83.6406 60.9722 82.7881 61.0242C82.1428 61.0676 81.4956 60.9757 80.8881 60.7542C80.4096 60.5764 79.9662 60.3158 79.5781 59.9842C79.3587 59.8083 79.1576 59.6106 78.978 59.3942C74.978 54.8242 75.628 41.3942 80.978 26.9942C86.278 12.8142 94.398 2.32423 100.408 1.24423C100.78 1.16761 101.159 1.13406 101.538 1.14423C102.047 1.15506 102.55 1.24966 103.028 1.42423C103.71 1.68438 104.322 2.09848 104.818 2.63423C105.353 3.20347 105.798 3.8509 106.138 4.55423C108.828 10.2442 107.758 22.3242 102.958 35.1442Z" fill="#D2D2D2"/>
<path d="M81.5684 26.3843L112.808 37.7943" stroke="#BABABA" stroke-linecap="round" stroke-linejoin="round"/>
<path d="M111.008 41.2443C113.416 41.2443 115.368 39.2923 115.368 36.8843C115.368 34.4763 113.416 32.5243 111.008 32.5243C108.6 32.5243 106.648 34.4763 106.648 36.8843C106.648 39.2923 108.6 41.2443 111.008 41.2443Z" fill="white" stroke="#BABABA" stroke-linecap="round" stroke-linejoin="round"/>
<path d="M37.9781 13.6943C37.9781 14.244 37.8696 14.7884 37.6589 15.2962C37.4482 15.804 37.1394 16.2652 36.7502 16.6535C36.361 17.0418 35.8991 17.3495 35.3908 17.559C34.8825 17.7684 34.3378 17.8756 33.7881 17.8743H23.5181C22.7224 17.8743 21.9594 17.5582 21.3967 16.9956C20.8341 16.433 20.5181 15.6699 20.5181 14.8743C20.5181 14.0786 20.8341 13.3156 21.3967 12.753C21.9594 12.1904 22.7224 11.8743 23.5181 11.8743C23.9118 11.8749 24.3019 11.9495 24.6681 12.0943C24.6278 11.9002 24.6077 11.7025 24.6081 11.5043C24.6152 10.7245 24.9024 9.97324 25.4174 9.38764C25.9323 8.80203 26.6407 8.42111 27.4132 8.3144C28.1857 8.20768 28.9708 8.38228 29.6252 8.80633C30.2797 9.23039 30.7598 9.87562 30.9781 10.6243C31.7392 9.91109 32.7451 9.51734 33.7881 9.52428C34.337 9.52297 34.8808 9.62978 35.3884 9.83864C35.8961 10.0475 36.3576 10.3543 36.7467 10.7415C37.1358 11.1287 37.4448 11.5888 37.6561 12.0954C37.8673 12.6021 37.9768 13.1454 37.9781 13.6943Z" fill="white" stroke="#BABABA" stroke-linecap="round" stroke-linejoin="round"/>
</svg>
